<svg width="139" height="139" viewBox="0 0 139 139" fill="none" xmlns="http://www.w3.org/2000/svg">
<path d="M138 138H118V94.5V116H100V99H79V48.5V60H138V44.5M138 138V79H98.5M138 138H40M40 138H1V79H59V99M40 138V117M40 96V117M40 117H67.5M61 60H40M40 60H1V1H59M40 60V23.5M59 1H138V44.5M59 1V23.5M59 30V23.5M59 23.5H98.5M138 44.5H100" stroke="black" stroke-width="2"/>
<circle cx="21.5" cy="38.5" r="5" fill="black"/>
<circle cx="119.5" cy="25.5" r="5" fill="black"/>
<circle cx="21.5" cy="115.5" r="5" fill="black"/>
</svg>
