<svg width="142" height="142" viewBox="0 0 142 142" fill="none" xmlns="http://www.w3.org/2000/svg">
<path d="M139.5 139.5H119.5V96V117.5H101.5V100.5H80.5V50V61.5H139.5V46M139.5 139.5V80.5H100M139.5 139.5H41.5M41.5 139.5H2.5V80.5H60.5V100.5M41.5 139.5V118.5M41.5 97.5V118.5M41.5 118.5H69M62.5 61.5H41.5M41.5 61.5H2.5V2.5H60.5M41.5 61.5V25M60.5 2.5H139.5V46M60.5 2.5V25M60.5 31.5V25M60.5 25H100M139.5 46H101.5" stroke="black" stroke-width="5"/>
<circle cx="23" cy="40" r="5" fill="black"/>
<circle cx="121" cy="27" r="5" fill="black"/>
<circle cx="23" cy="117" r="5" fill="black"/>
</svg>
